<mxfile host="app.diagrams.net" modified="2024-04-28T00:57:44.056Z" agent="Mozilla/5.0 (Windows NT 10.0; Win64; x64) AppleWebKit/537.36 (KHTML, like Gecko) Chrome/124.0.0.0 Safari/537.36" etag="kz4JTWE5iHMw5oTF7Ntp" version="24.3.1" type="google">
  <diagram name="Page-1" id="eBus6KvWYmIQSByNg0u_">
    <mxGraphModel grid="1" page="1" gridSize="10" guides="1" tooltips="1" connect="1" arrows="1" fold="1" pageScale="1" pageWidth="827" pageHeight="1169" math="0" shadow="0">
      <root>
        <mxCell id="0" />
        <mxCell id="1" parent="0" />
        <mxCell id="xbqDm_6GoD3HRJn97Xox-2" value="&lt;font style=&quot;font-size: 24px;&quot;&gt;&lt;b&gt;Patients&lt;/b&gt;&lt;/font&gt;" style="rounded=1;whiteSpace=wrap;html=1;fillColor=#CDA2BE;" vertex="1" parent="1">
          <mxGeometry x="-170" y="190" width="170" height="70" as="geometry" />
        </mxCell>
        <mxCell id="xbqDm_6GoD3HRJn97Xox-3" value="&lt;font style=&quot;font-size: 18px;&quot;&gt;&lt;u&gt;Patient_ID&lt;/u&gt;&lt;/font&gt;" style="ellipse;whiteSpace=wrap;html=1;fillColor=#FFFFCC;" vertex="1" parent="1">
          <mxGeometry x="-413" y="380" width="120" height="80" as="geometry" />
        </mxCell>
        <mxCell id="xbqDm_6GoD3HRJn97Xox-4" value="&lt;font style=&quot;font-size: 18px;&quot;&gt;Patient_Name&lt;/font&gt;" style="ellipse;whiteSpace=wrap;html=1;fillColor=#FFFFCC;" vertex="1" parent="1">
          <mxGeometry x="-460" y="280" width="150" height="80" as="geometry" />
        </mxCell>
        <mxCell id="xbqDm_6GoD3HRJn97Xox-5" value="&lt;font style=&quot;font-size: 18px;&quot;&gt;Patient_Address&lt;/font&gt;" style="ellipse;whiteSpace=wrap;html=1;fillColor=#FFFFCC;" vertex="1" parent="1">
          <mxGeometry x="-440" y="160" width="150" height="80" as="geometry" />
        </mxCell>
        <mxCell id="xbqDm_6GoD3HRJn97Xox-6" value="&lt;font style=&quot;font-size: 18px;&quot;&gt;Date_admitted&lt;/font&gt;" style="ellipse;whiteSpace=wrap;html=1;fillColor=#FFFFCC;" vertex="1" parent="1">
          <mxGeometry x="-460" y="60" width="140" height="80" as="geometry" />
        </mxCell>
        <mxCell id="xbqDm_6GoD3HRJn97Xox-7" value="&lt;font style=&quot;font-size: 18px;&quot;&gt;Date_discharged&lt;/font&gt;" style="ellipse;whiteSpace=wrap;html=1;fillColor=#FFFFCC;" vertex="1" parent="1">
          <mxGeometry x="-460" y="-40" width="167" height="80" as="geometry" />
        </mxCell>
        <mxCell id="xbqDm_6GoD3HRJn97Xox-8" value="&lt;font style=&quot;font-size: 18px;&quot;&gt;City&lt;/font&gt;" style="ellipse;whiteSpace=wrap;html=1;fillColor=#FFFFCC;" vertex="1" parent="1">
          <mxGeometry x="-660" y="230" width="120" height="80" as="geometry" />
        </mxCell>
        <mxCell id="xbqDm_6GoD3HRJn97Xox-9" value="&lt;font style=&quot;font-size: 18px;&quot;&gt;Street&lt;/font&gt;" style="ellipse;whiteSpace=wrap;html=1;fillColor=#FFFFCC;" vertex="1" parent="1">
          <mxGeometry x="-670" y="130" width="120" height="80" as="geometry" />
        </mxCell>
        <mxCell id="xbqDm_6GoD3HRJn97Xox-10" value="&lt;font style=&quot;font-size: 18px;&quot;&gt;Zip_code&lt;/font&gt;" style="ellipse;whiteSpace=wrap;html=1;fillColor=#FFFFCC;" vertex="1" parent="1">
          <mxGeometry x="-670" y="30" width="120" height="80" as="geometry" />
        </mxCell>
        <mxCell id="xbqDm_6GoD3HRJn97Xox-12" value="&lt;font style=&quot;font-size: 18px;&quot;&gt;Patient_Gender&lt;/font&gt;" style="ellipse;whiteSpace=wrap;html=1;fillColor=#FFFFCC;" vertex="1" parent="1">
          <mxGeometry x="-340" y="-120" width="140" height="90" as="geometry" />
        </mxCell>
        <mxCell id="xbqDm_6GoD3HRJn97Xox-13" value="&lt;font style=&quot;font-size: 18px;&quot;&gt;Room_NO&lt;/font&gt;" style="ellipse;whiteSpace=wrap;html=1;fillColor=#FFFFCC;" vertex="1" parent="1">
          <mxGeometry x="-190" y="-150" width="140" height="100" as="geometry" />
        </mxCell>
        <mxCell id="xbqDm_6GoD3HRJn97Xox-14" value="&lt;font style=&quot;font-size: 18px;&quot;&gt;Problem&lt;/font&gt;" style="ellipse;whiteSpace=wrap;html=1;fillColor=#FFFFCC;" vertex="1" parent="1">
          <mxGeometry x="100" y="-140" width="120" height="80" as="geometry" />
        </mxCell>
        <mxCell id="xbqDm_6GoD3HRJn97Xox-15" value="&lt;font style=&quot;font-size: 18px;&quot;&gt;Category&lt;/font&gt;" style="ellipse;whiteSpace=wrap;html=1;fillColor=#FFFFCC;" vertex="1" parent="1">
          <mxGeometry x="140" y="-50" width="120" height="80" as="geometry" />
        </mxCell>
        <mxCell id="xbqDm_6GoD3HRJn97Xox-16" value="" style="endArrow=none;html=1;rounded=0;exitX=0.963;exitY=0.212;exitDx=0;exitDy=0;exitPerimeter=0;" edge="1" parent="1" source="xbqDm_6GoD3HRJn97Xox-3">
          <mxGeometry width="50" height="50" relative="1" as="geometry">
            <mxPoint x="-200" y="310" as="sourcePoint" />
            <mxPoint x="-150" y="260" as="targetPoint" />
          </mxGeometry>
        </mxCell>
        <mxCell id="xbqDm_6GoD3HRJn97Xox-17" value="" style="endArrow=none;html=1;rounded=0;exitX=0.962;exitY=0.191;exitDx=0;exitDy=0;exitPerimeter=0;" edge="1" parent="1" source="xbqDm_6GoD3HRJn97Xox-4">
          <mxGeometry width="50" height="50" relative="1" as="geometry">
            <mxPoint x="-220" y="290" as="sourcePoint" />
            <mxPoint x="-170" y="240" as="targetPoint" />
          </mxGeometry>
        </mxCell>
        <mxCell id="xbqDm_6GoD3HRJn97Xox-19" value="" style="endArrow=none;html=1;rounded=0;entryX=1;entryY=0.5;entryDx=0;entryDy=0;" edge="1" parent="1" target="xbqDm_6GoD3HRJn97Xox-5">
          <mxGeometry width="50" height="50" relative="1" as="geometry">
            <mxPoint x="-170" y="195" as="sourcePoint" />
            <mxPoint x="-120" y="145" as="targetPoint" />
          </mxGeometry>
        </mxCell>
        <mxCell id="xbqDm_6GoD3HRJn97Xox-20" value="" style="endArrow=none;html=1;rounded=0;entryX=1.007;entryY=0.705;entryDx=0;entryDy=0;entryPerimeter=0;" edge="1" parent="1" target="xbqDm_6GoD3HRJn97Xox-6">
          <mxGeometry width="50" height="50" relative="1" as="geometry">
            <mxPoint x="-150" y="190" as="sourcePoint" />
            <mxPoint x="-100" y="140" as="targetPoint" />
          </mxGeometry>
        </mxCell>
        <mxCell id="xbqDm_6GoD3HRJn97Xox-21" value="" style="endArrow=none;html=1;rounded=0;entryX=1;entryY=1;entryDx=0;entryDy=0;" edge="1" parent="1" target="xbqDm_6GoD3HRJn97Xox-7">
          <mxGeometry width="50" height="50" relative="1" as="geometry">
            <mxPoint x="-140" y="190" as="sourcePoint" />
            <mxPoint x="-90" y="140" as="targetPoint" />
          </mxGeometry>
        </mxCell>
        <mxCell id="xbqDm_6GoD3HRJn97Xox-22" value="" style="endArrow=none;html=1;rounded=0;entryX=0.426;entryY=1.012;entryDx=0;entryDy=0;entryPerimeter=0;" edge="1" parent="1" target="xbqDm_6GoD3HRJn97Xox-12">
          <mxGeometry width="50" height="50" relative="1" as="geometry">
            <mxPoint x="-100" y="190" as="sourcePoint" />
            <mxPoint x="-50" y="140" as="targetPoint" />
          </mxGeometry>
        </mxCell>
        <mxCell id="xbqDm_6GoD3HRJn97Xox-23" value="" style="endArrow=none;html=1;rounded=0;entryX=0;entryY=1;entryDx=0;entryDy=0;" edge="1" parent="1" target="xbqDm_6GoD3HRJn97Xox-13">
          <mxGeometry width="50" height="50" relative="1" as="geometry">
            <mxPoint x="-40" y="190" as="sourcePoint" />
            <mxPoint x="10" y="140" as="targetPoint" />
          </mxGeometry>
        </mxCell>
        <mxCell id="xbqDm_6GoD3HRJn97Xox-24" value="" style="endArrow=none;html=1;rounded=0;entryX=0.036;entryY=0.641;entryDx=0;entryDy=0;entryPerimeter=0;" edge="1" parent="1" target="xbqDm_6GoD3HRJn97Xox-14">
          <mxGeometry width="50" height="50" relative="1" as="geometry">
            <mxPoint x="-10" y="190" as="sourcePoint" />
            <mxPoint x="40" y="140" as="targetPoint" />
          </mxGeometry>
        </mxCell>
        <mxCell id="xbqDm_6GoD3HRJn97Xox-25" value="" style="endArrow=none;html=1;rounded=0;entryX=0;entryY=0.5;entryDx=0;entryDy=0;" edge="1" parent="1" target="xbqDm_6GoD3HRJn97Xox-15">
          <mxGeometry width="50" height="50" relative="1" as="geometry">
            <mxPoint y="230" as="sourcePoint" />
            <mxPoint x="50" y="180" as="targetPoint" />
          </mxGeometry>
        </mxCell>
        <mxCell id="xbqDm_6GoD3HRJn97Xox-26" value="" style="endArrow=none;html=1;rounded=0;exitX=1.002;exitY=0.302;exitDx=0;exitDy=0;exitPerimeter=0;" edge="1" parent="1" source="xbqDm_6GoD3HRJn97Xox-8">
          <mxGeometry width="50" height="50" relative="1" as="geometry">
            <mxPoint x="-480" y="270" as="sourcePoint" />
            <mxPoint x="-430" y="220" as="targetPoint" />
          </mxGeometry>
        </mxCell>
        <mxCell id="xbqDm_6GoD3HRJn97Xox-27" value="" style="endArrow=none;html=1;rounded=0;exitX=1;exitY=0.5;exitDx=0;exitDy=0;" edge="1" parent="1" source="xbqDm_6GoD3HRJn97Xox-9">
          <mxGeometry width="50" height="50" relative="1" as="geometry">
            <mxPoint x="-490" y="240" as="sourcePoint" />
            <mxPoint x="-440" y="190" as="targetPoint" />
          </mxGeometry>
        </mxCell>
        <mxCell id="xbqDm_6GoD3HRJn97Xox-28" value="" style="endArrow=none;html=1;rounded=0;exitX=0;exitY=0;exitDx=0;exitDy=0;entryX=1;entryY=1;entryDx=0;entryDy=0;" edge="1" parent="1" source="xbqDm_6GoD3HRJn97Xox-5" target="xbqDm_6GoD3HRJn97Xox-10">
          <mxGeometry width="50" height="50" relative="1" as="geometry">
            <mxPoint x="-490" y="160" as="sourcePoint" />
            <mxPoint x="-440" y="110" as="targetPoint" />
          </mxGeometry>
        </mxCell>
        <mxCell id="xbqDm_6GoD3HRJn97Xox-29" value="&lt;font style=&quot;font-size: 18px;&quot;&gt;Treats&lt;/font&gt;" style="rhombus;whiteSpace=wrap;html=1;fillColor=#FFCCCC;" vertex="1" parent="1">
          <mxGeometry x="280" y="180" width="160" height="110" as="geometry" />
        </mxCell>
        <mxCell id="xbqDm_6GoD3HRJn97Xox-30" value="" style="endArrow=none;html=1;rounded=0;entryX=0;entryY=0.5;entryDx=0;entryDy=0;" edge="1" parent="1" target="xbqDm_6GoD3HRJn97Xox-29">
          <mxGeometry width="50" height="50" relative="1" as="geometry">
            <mxPoint y="240" as="sourcePoint" />
            <mxPoint x="50" y="190" as="targetPoint" />
          </mxGeometry>
        </mxCell>
        <mxCell id="xbqDm_6GoD3HRJn97Xox-31" value="" style="endArrow=none;html=1;rounded=0;entryX=0.105;entryY=0.591;entryDx=0;entryDy=0;entryPerimeter=0;" edge="1" parent="1" target="xbqDm_6GoD3HRJn97Xox-29">
          <mxGeometry width="50" height="50" relative="1" as="geometry">
            <mxPoint y="250" as="sourcePoint" />
            <mxPoint x="50" y="200" as="targetPoint" />
          </mxGeometry>
        </mxCell>
        <mxCell id="xbqDm_6GoD3HRJn97Xox-32" value="&lt;font style=&quot;font-size: 24px;&quot;&gt;&lt;b&gt;Doctors&lt;/b&gt;&lt;/font&gt;" style="rounded=1;whiteSpace=wrap;html=1;fillColor=#CDA2BE;" vertex="1" parent="1">
          <mxGeometry x="760" y="200" width="170" height="70" as="geometry" />
        </mxCell>
        <mxCell id="xbqDm_6GoD3HRJn97Xox-33" value="" style="endArrow=none;html=1;rounded=0;entryX=0;entryY=0.5;entryDx=0;entryDy=0;exitX=1;exitY=0.5;exitDx=0;exitDy=0;" edge="1" parent="1" source="xbqDm_6GoD3HRJn97Xox-29" target="xbqDm_6GoD3HRJn97Xox-32">
          <mxGeometry width="50" height="50" relative="1" as="geometry">
            <mxPoint x="440" y="240" as="sourcePoint" />
            <mxPoint x="490" y="190" as="targetPoint" />
          </mxGeometry>
        </mxCell>
        <mxCell id="xbqDm_6GoD3HRJn97Xox-34" value="&lt;font style=&quot;font-size: 18px;&quot;&gt;&lt;u&gt;Doctor_ID&lt;/u&gt;&lt;/font&gt;" style="ellipse;whiteSpace=wrap;html=1;fillColor=#FFFFCC;" vertex="1" parent="1">
          <mxGeometry x="560" y="80" width="120" height="80" as="geometry" />
        </mxCell>
        <mxCell id="xbqDm_6GoD3HRJn97Xox-35" value="&lt;font style=&quot;font-size: 18px;&quot;&gt;Doctor_Name&lt;/font&gt;" style="ellipse;whiteSpace=wrap;html=1;fillColor=#FFFFCC;" vertex="1" parent="1">
          <mxGeometry x="550" y="-20" width="140" height="80" as="geometry" />
        </mxCell>
        <mxCell id="xbqDm_6GoD3HRJn97Xox-36" value="&lt;font style=&quot;font-size: 18px;&quot;&gt;Doctor_Address&lt;/font&gt;" style="ellipse;whiteSpace=wrap;html=1;fillColor=#FFFFCC;" vertex="1" parent="1">
          <mxGeometry x="650" y="-110" width="140" height="80" as="geometry" />
        </mxCell>
        <mxCell id="xbqDm_6GoD3HRJn97Xox-37" value="&lt;font style=&quot;font-size: 18px;&quot;&gt;Spec_ID&lt;/font&gt;" style="ellipse;whiteSpace=wrap;html=1;fillColor=#FFFFCC;" vertex="1" parent="1">
          <mxGeometry x="800" y="-140" width="120" height="80" as="geometry" />
        </mxCell>
        <mxCell id="xbqDm_6GoD3HRJn97Xox-38" value="&lt;font style=&quot;font-size: 18px;&quot;&gt;Experience_year&lt;/font&gt;" style="ellipse;whiteSpace=wrap;html=1;fillColor=#FFFFCC;" vertex="1" parent="1">
          <mxGeometry x="940" y="-140" width="160" height="90" as="geometry" />
        </mxCell>
        <mxCell id="xbqDm_6GoD3HRJn97Xox-39" value="" style="ellipse;whiteSpace=wrap;html=1;fillColor=#FFFFCC;" vertex="1" parent="1">
          <mxGeometry x="980" y="-20" width="150" height="90" as="geometry" />
        </mxCell>
        <mxCell id="xbqDm_6GoD3HRJn97Xox-43" value="&lt;font style=&quot;font-size: 18px;&quot;&gt;City&lt;/font&gt;" style="ellipse;whiteSpace=wrap;html=1;fillColor=#FFFFCC;" vertex="1" parent="1">
          <mxGeometry x="460" y="-150" width="120" height="80" as="geometry" />
        </mxCell>
        <mxCell id="xbqDm_6GoD3HRJn97Xox-44" value="&lt;font style=&quot;font-size: 18px;&quot;&gt;Street&lt;/font&gt;" style="ellipse;whiteSpace=wrap;html=1;fillColor=#FFFFCC;" vertex="1" parent="1">
          <mxGeometry x="500" y="-250" width="120" height="80" as="geometry" />
        </mxCell>
        <mxCell id="xbqDm_6GoD3HRJn97Xox-45" value="&lt;font style=&quot;font-size: 18px;&quot;&gt;Zip_code&lt;/font&gt;" style="ellipse;whiteSpace=wrap;html=1;fillColor=#FFFFCC;" vertex="1" parent="1">
          <mxGeometry x="630" y="-310" width="120" height="80" as="geometry" />
        </mxCell>
        <mxCell id="xbqDm_6GoD3HRJn97Xox-46" value="" style="endArrow=none;html=1;rounded=0;exitX=1;exitY=0.5;exitDx=0;exitDy=0;entryX=0;entryY=0.295;entryDx=0;entryDy=0;entryPerimeter=0;" edge="1" parent="1" source="xbqDm_6GoD3HRJn97Xox-43" target="xbqDm_6GoD3HRJn97Xox-36">
          <mxGeometry width="50" height="50" relative="1" as="geometry">
            <mxPoint x="620" y="-30" as="sourcePoint" />
            <mxPoint x="670" y="-80" as="targetPoint" />
          </mxGeometry>
        </mxCell>
        <mxCell id="xbqDm_6GoD3HRJn97Xox-47" value="" style="endArrow=none;html=1;rounded=0;exitX=0.22;exitY=0.052;exitDx=0;exitDy=0;exitPerimeter=0;" edge="1" parent="1" source="xbqDm_6GoD3HRJn97Xox-36" target="xbqDm_6GoD3HRJn97Xox-44">
          <mxGeometry width="50" height="50" relative="1" as="geometry">
            <mxPoint x="690" y="-100" as="sourcePoint" />
            <mxPoint x="740" y="-150" as="targetPoint" />
          </mxGeometry>
        </mxCell>
        <mxCell id="xbqDm_6GoD3HRJn97Xox-48" value="" style="endArrow=none;html=1;rounded=0;entryX=0.5;entryY=1;entryDx=0;entryDy=0;" edge="1" parent="1" target="xbqDm_6GoD3HRJn97Xox-45">
          <mxGeometry width="50" height="50" relative="1" as="geometry">
            <mxPoint x="720" y="-110" as="sourcePoint" />
            <mxPoint x="770" y="-160" as="targetPoint" />
          </mxGeometry>
        </mxCell>
        <mxCell id="xbqDm_6GoD3HRJn97Xox-49" value="&lt;font style=&quot;font-size: 18px;&quot;&gt;Contact_NO&lt;/font&gt;" style="ellipse;whiteSpace=wrap;html=1;fillColor=#FFFFCC;" vertex="1" parent="1">
          <mxGeometry x="990" y="-15" width="130" height="80" as="geometry" />
        </mxCell>
        <mxCell id="xbqDm_6GoD3HRJn97Xox-51" value="" style="ellipse;whiteSpace=wrap;html=1;fillColor=#FFFFCC;" vertex="1" parent="1">
          <mxGeometry x="170" y="50" width="140" height="90" as="geometry" />
        </mxCell>
        <mxCell id="xbqDm_6GoD3HRJn97Xox-53" value="&lt;font style=&quot;font-size: 18px;&quot;&gt;Contact_NO&lt;/font&gt;" style="ellipse;whiteSpace=wrap;html=1;fillColor=#FFFFCC;" vertex="1" parent="1">
          <mxGeometry x="180" y="55" width="120" height="80" as="geometry" />
        </mxCell>
        <mxCell id="xbqDm_6GoD3HRJn97Xox-54" value="" style="endArrow=none;html=1;rounded=0;entryX=0.284;entryY=1.002;entryDx=0;entryDy=0;entryPerimeter=0;" edge="1" parent="1" target="xbqDm_6GoD3HRJn97Xox-39">
          <mxGeometry width="50" height="50" relative="1" as="geometry">
            <mxPoint x="920" y="200" as="sourcePoint" />
            <mxPoint x="970" y="150" as="targetPoint" />
          </mxGeometry>
        </mxCell>
        <mxCell id="xbqDm_6GoD3HRJn97Xox-55" value="" style="endArrow=none;html=1;rounded=0;exitX=0.75;exitY=0;exitDx=0;exitDy=0;" edge="1" parent="1" source="xbqDm_6GoD3HRJn97Xox-32">
          <mxGeometry width="50" height="50" relative="1" as="geometry">
            <mxPoint x="860" y="190" as="sourcePoint" />
            <mxPoint x="970" y="-60" as="targetPoint" />
          </mxGeometry>
        </mxCell>
        <mxCell id="xbqDm_6GoD3HRJn97Xox-56" value="" style="endArrow=none;html=1;rounded=0;entryX=0.5;entryY=1;entryDx=0;entryDy=0;" edge="1" parent="1" target="xbqDm_6GoD3HRJn97Xox-37">
          <mxGeometry width="50" height="50" relative="1" as="geometry">
            <mxPoint x="860" y="200" as="sourcePoint" />
            <mxPoint x="910" y="150" as="targetPoint" />
          </mxGeometry>
        </mxCell>
        <mxCell id="xbqDm_6GoD3HRJn97Xox-57" value="" style="endArrow=none;html=1;rounded=0;exitX=0.328;exitY=-0.027;exitDx=0;exitDy=0;exitPerimeter=0;" edge="1" parent="1" source="xbqDm_6GoD3HRJn97Xox-32" target="xbqDm_6GoD3HRJn97Xox-36">
          <mxGeometry width="50" height="50" relative="1" as="geometry">
            <mxPoint x="710" y="190" as="sourcePoint" />
            <mxPoint x="760" y="140" as="targetPoint" />
          </mxGeometry>
        </mxCell>
        <mxCell id="xbqDm_6GoD3HRJn97Xox-58" value="" style="endArrow=none;html=1;rounded=0;exitX=0.113;exitY=-0.01;exitDx=0;exitDy=0;exitPerimeter=0;" edge="1" parent="1" source="xbqDm_6GoD3HRJn97Xox-32" target="xbqDm_6GoD3HRJn97Xox-35">
          <mxGeometry width="50" height="50" relative="1" as="geometry">
            <mxPoint x="780" y="190" as="sourcePoint" />
            <mxPoint x="810" y="160" as="targetPoint" />
          </mxGeometry>
        </mxCell>
        <mxCell id="xbqDm_6GoD3HRJn97Xox-59" value="" style="endArrow=none;html=1;rounded=0;" edge="1" parent="1" target="xbqDm_6GoD3HRJn97Xox-34">
          <mxGeometry width="50" height="50" relative="1" as="geometry">
            <mxPoint x="760" y="220" as="sourcePoint" />
            <mxPoint x="810" y="170" as="targetPoint" />
          </mxGeometry>
        </mxCell>
        <mxCell id="xbqDm_6GoD3HRJn97Xox-60" value="" style="endArrow=none;html=1;rounded=0;entryX=0;entryY=0.5;entryDx=0;entryDy=0;" edge="1" parent="1" target="xbqDm_6GoD3HRJn97Xox-51">
          <mxGeometry width="50" height="50" relative="1" as="geometry">
            <mxPoint y="240" as="sourcePoint" />
            <mxPoint x="50" y="190" as="targetPoint" />
          </mxGeometry>
        </mxCell>
        <mxCell id="xbqDm_6GoD3HRJn97Xox-61" value="&lt;font style=&quot;font-size: 18px;&quot;&gt;Specialized&lt;/font&gt;" style="rhombus;whiteSpace=wrap;html=1;fillColor=#FFCCCC;" vertex="1" parent="1">
          <mxGeometry x="780" y="420" width="145" height="120" as="geometry" />
        </mxCell>
        <mxCell id="xbqDm_6GoD3HRJn97Xox-62" value="&lt;font style=&quot;font-size: 24px;&quot;&gt;&lt;b&gt;Specialization&lt;/b&gt;&lt;/font&gt;" style="rounded=1;whiteSpace=wrap;html=1;fillColor=#CDA2BE;" vertex="1" parent="1">
          <mxGeometry x="750" y="690" width="230" height="75" as="geometry" />
        </mxCell>
        <mxCell id="xbqDm_6GoD3HRJn97Xox-63" value="" style="endArrow=none;html=1;rounded=0;entryX=0.5;entryY=1;entryDx=0;entryDy=0;" edge="1" parent="1" target="xbqDm_6GoD3HRJn97Xox-32">
          <mxGeometry width="50" height="50" relative="1" as="geometry">
            <mxPoint x="850" y="420" as="sourcePoint" />
            <mxPoint x="900" y="370" as="targetPoint" />
          </mxGeometry>
        </mxCell>
        <mxCell id="xbqDm_6GoD3HRJn97Xox-64" value="" style="endArrow=none;html=1;rounded=0;entryX=0.576;entryY=1.035;entryDx=0;entryDy=0;entryPerimeter=0;" edge="1" parent="1" target="xbqDm_6GoD3HRJn97Xox-32">
          <mxGeometry width="50" height="50" relative="1" as="geometry">
            <mxPoint x="860" y="420" as="sourcePoint" />
            <mxPoint x="910" y="370" as="targetPoint" />
          </mxGeometry>
        </mxCell>
        <mxCell id="xbqDm_6GoD3HRJn97Xox-65" value="" style="endArrow=none;html=1;rounded=0;entryX=0.5;entryY=1;entryDx=0;entryDy=0;" edge="1" parent="1" target="xbqDm_6GoD3HRJn97Xox-61">
          <mxGeometry width="50" height="50" relative="1" as="geometry">
            <mxPoint x="850" y="690" as="sourcePoint" />
            <mxPoint x="900" y="640" as="targetPoint" />
          </mxGeometry>
        </mxCell>
        <mxCell id="xbqDm_6GoD3HRJn97Xox-67" value="" style="endArrow=none;html=1;rounded=0;entryX=0.617;entryY=0.904;entryDx=0;entryDy=0;entryPerimeter=0;exitX=0.5;exitY=0;exitDx=0;exitDy=0;" edge="1" parent="1">
          <mxGeometry width="50" height="50" relative="1" as="geometry">
            <mxPoint x="857.77" y="690" as="sourcePoint" />
            <mxPoint x="862.2350000000001" y="528.48" as="targetPoint" />
          </mxGeometry>
        </mxCell>
        <mxCell id="xbqDm_6GoD3HRJn97Xox-68" value="&lt;font style=&quot;font-size: 18px;&quot;&gt;&lt;u&gt;Spec_ID&lt;/u&gt;&lt;/font&gt;" style="ellipse;whiteSpace=wrap;html=1;fillColor=#FFFFCC;" vertex="1" parent="1">
          <mxGeometry x="707" y="850" width="120" height="80" as="geometry" />
        </mxCell>
        <mxCell id="xbqDm_6GoD3HRJn97Xox-69" value="&lt;font style=&quot;font-size: 18px;&quot;&gt;Spec_Name&lt;/font&gt;" style="ellipse;whiteSpace=wrap;html=1;fillColor=#FFFFCC;" vertex="1" parent="1">
          <mxGeometry x="900" y="850" width="120" height="80" as="geometry" />
        </mxCell>
        <mxCell id="xbqDm_6GoD3HRJn97Xox-70" value="" style="endArrow=none;html=1;rounded=0;entryX=0.15;entryY=1.061;entryDx=0;entryDy=0;entryPerimeter=0;" edge="1" parent="1" target="xbqDm_6GoD3HRJn97Xox-62">
          <mxGeometry width="50" height="50" relative="1" as="geometry">
            <mxPoint x="770" y="850" as="sourcePoint" />
            <mxPoint x="820" y="800" as="targetPoint" />
          </mxGeometry>
        </mxCell>
        <mxCell id="xbqDm_6GoD3HRJn97Xox-71" value="" style="endArrow=none;html=1;rounded=0;entryX=0.75;entryY=1;entryDx=0;entryDy=0;" edge="1" parent="1" target="xbqDm_6GoD3HRJn97Xox-62">
          <mxGeometry width="50" height="50" relative="1" as="geometry">
            <mxPoint x="970" y="850" as="sourcePoint" />
            <mxPoint x="1020" y="800" as="targetPoint" />
          </mxGeometry>
        </mxCell>
        <mxCell id="xbqDm_6GoD3HRJn97Xox-72" value="&lt;font style=&quot;font-size: 18px;&quot;&gt;Has&lt;/font&gt;" style="rhombus;whiteSpace=wrap;html=1;fillColor=#FFCCCC;" vertex="1" parent="1">
          <mxGeometry x="-140" y="450" width="140" height="110" as="geometry" />
        </mxCell>
        <mxCell id="xbqDm_6GoD3HRJn97Xox-73" value="&lt;font style=&quot;font-size: 24px;&quot;&gt;&lt;b&gt;Disease&lt;/b&gt;&lt;/font&gt;" style="rounded=1;whiteSpace=wrap;html=1;fillColor=#CDA2BE;" vertex="1" parent="1">
          <mxGeometry x="-130" y="680" width="165" height="70" as="geometry" />
        </mxCell>
        <mxCell id="xbqDm_6GoD3HRJn97Xox-74" value="" style="endArrow=none;html=1;rounded=0;entryX=0.5;entryY=1;entryDx=0;entryDy=0;exitX=0.418;exitY=0.121;exitDx=0;exitDy=0;exitPerimeter=0;" edge="1" parent="1" source="xbqDm_6GoD3HRJn97Xox-72" target="xbqDm_6GoD3HRJn97Xox-2">
          <mxGeometry width="50" height="50" relative="1" as="geometry">
            <mxPoint x="-80" y="450" as="sourcePoint" />
            <mxPoint x="-30" y="400" as="targetPoint" />
          </mxGeometry>
        </mxCell>
        <mxCell id="xbqDm_6GoD3HRJn97Xox-75" value="" style="endArrow=none;html=1;rounded=0;entryX=0.588;entryY=1.031;entryDx=0;entryDy=0;entryPerimeter=0;" edge="1" parent="1" target="xbqDm_6GoD3HRJn97Xox-2">
          <mxGeometry width="50" height="50" relative="1" as="geometry">
            <mxPoint x="-70" y="450" as="sourcePoint" />
            <mxPoint x="-20" y="400" as="targetPoint" />
          </mxGeometry>
        </mxCell>
        <mxCell id="xbqDm_6GoD3HRJn97Xox-76" value="" style="endArrow=none;html=1;rounded=0;entryX=0.5;entryY=1;entryDx=0;entryDy=0;exitX=0.357;exitY=-0.01;exitDx=0;exitDy=0;exitPerimeter=0;" edge="1" parent="1" source="xbqDm_6GoD3HRJn97Xox-73" target="xbqDm_6GoD3HRJn97Xox-72">
          <mxGeometry width="50" height="50" relative="1" as="geometry">
            <mxPoint x="-90" y="670" as="sourcePoint" />
            <mxPoint x="-40" y="620" as="targetPoint" />
          </mxGeometry>
        </mxCell>
        <mxCell id="xbqDm_6GoD3HRJn97Xox-77" value="&lt;font style=&quot;font-size: 18px;&quot;&gt;&lt;u&gt;Dis_ID&lt;/u&gt;&lt;/font&gt;" style="ellipse;whiteSpace=wrap;html=1;fillColor=#FFFFCC;" vertex="1" parent="1">
          <mxGeometry x="-210" y="820" width="120" height="80" as="geometry" />
        </mxCell>
        <mxCell id="xbqDm_6GoD3HRJn97Xox-78" value="&lt;font style=&quot;font-size: 18px;&quot;&gt;Dis_Name&lt;/font&gt;" style="ellipse;whiteSpace=wrap;html=1;fillColor=#FFFFCC;" vertex="1" parent="1">
          <mxGeometry x="-30" y="810" width="120" height="80" as="geometry" />
        </mxCell>
        <mxCell id="xbqDm_6GoD3HRJn97Xox-79" value="" style="endArrow=none;html=1;rounded=0;entryX=0.25;entryY=1;entryDx=0;entryDy=0;" edge="1" parent="1" target="xbqDm_6GoD3HRJn97Xox-73">
          <mxGeometry width="50" height="50" relative="1" as="geometry">
            <mxPoint x="-140" y="820" as="sourcePoint" />
            <mxPoint x="-90" y="770" as="targetPoint" />
          </mxGeometry>
        </mxCell>
        <mxCell id="xbqDm_6GoD3HRJn97Xox-80" value="" style="endArrow=none;html=1;rounded=0;entryX=0.655;entryY=0.986;entryDx=0;entryDy=0;entryPerimeter=0;" edge="1" parent="1" target="xbqDm_6GoD3HRJn97Xox-73">
          <mxGeometry width="50" height="50" relative="1" as="geometry">
            <mxPoint x="30" y="810" as="sourcePoint" />
            <mxPoint x="80" y="760" as="targetPoint" />
          </mxGeometry>
        </mxCell>
        <mxCell id="xbqDm_6GoD3HRJn97Xox-81" value="&lt;font style=&quot;font-size: 24px;&quot;&gt;&lt;b&gt;M&lt;/b&gt;&lt;/font&gt;" style="text;html=1;align=center;verticalAlign=middle;whiteSpace=wrap;rounded=0;" vertex="1" parent="1">
          <mxGeometry x="100" y="280" width="60" height="30" as="geometry" />
        </mxCell>
        <mxCell id="xbqDm_6GoD3HRJn97Xox-83" value="&lt;font style=&quot;font-size: 24px;&quot;&gt;&lt;b&gt;N&lt;/b&gt;&lt;/font&gt;" style="text;html=1;align=center;verticalAlign=middle;whiteSpace=wrap;rounded=0;" vertex="1" parent="1">
          <mxGeometry x="540" y="270" width="60" height="30" as="geometry" />
        </mxCell>
        <mxCell id="xbqDm_6GoD3HRJn97Xox-84" value="&lt;font style=&quot;font-size: 24px;&quot;&gt;&lt;b&gt;M&lt;/b&gt;&lt;/font&gt;" style="text;html=1;align=center;verticalAlign=middle;whiteSpace=wrap;rounded=0;" vertex="1" parent="1">
          <mxGeometry x="-40" y="350" width="60" height="30" as="geometry" />
        </mxCell>
        <mxCell id="xbqDm_6GoD3HRJn97Xox-85" value="&lt;font style=&quot;font-size: 24px;&quot;&gt;&lt;b&gt;N&lt;/b&gt;&lt;/font&gt;" style="text;html=1;align=center;verticalAlign=middle;whiteSpace=wrap;rounded=0;" vertex="1" parent="1">
          <mxGeometry x="-30" y="590" width="60" height="30" as="geometry" />
        </mxCell>
        <mxCell id="xbqDm_6GoD3HRJn97Xox-86" value="&lt;font style=&quot;font-size: 24px;&quot;&gt;&lt;b&gt;1&lt;/b&gt;&lt;/font&gt;" style="text;html=1;align=center;verticalAlign=middle;whiteSpace=wrap;rounded=0;" vertex="1" parent="1">
          <mxGeometry x="767" y="600" width="60" height="30" as="geometry" />
        </mxCell>
        <mxCell id="xbqDm_6GoD3HRJn97Xox-87" value="&lt;font style=&quot;font-size: 24px;&quot;&gt;&lt;b&gt;N&lt;/b&gt;&lt;/font&gt;" style="text;html=1;align=center;verticalAlign=middle;whiteSpace=wrap;rounded=0;" vertex="1" parent="1">
          <mxGeometry x="767" y="360" width="60" height="30" as="geometry" />
        </mxCell>
      </root>
    </mxGraphModel>
  </diagram>
</mxfile>
